<?xml version="1.0" standalone="no"?><!DOCTYPE svg PUBLIC "-//W3C//DTD SVG 1.1//EN" "http://www.w3.org/Graphics/SVG/1.1/DTD/svg11.dtd"><svg t="1544370282813" class="icon" style="" viewBox="0 0 1024 1024" version="1.1" xmlns="http://www.w3.org/2000/svg" p-id="2762" xmlns:xlink="http://www.w3.org/1999/xlink" width="200" height="200"><defs><style type="text/css"></style></defs><path d="M512 0c282.76736 0 512 229.23264 512 512s-229.23264 512-512 512S0 794.76736 0 512 229.23264 0 512 0z" fill="#E2574C" p-id="2763"></path><path d="M993.28 337.92H522.24c-42.3424-22.6816-64.95232-51.2-81.92-51.2H296.96a30.72 30.72 0 0 0-30.72 30.72v215.04a30.72 30.72 0 0 0 30.72 30.72h696.32a30.72 30.72 0 0 0 30.01344-24.23808c0.4608-8.92928 0.70656-17.92 0.70656-26.96192 0-61.11232-10.752-119.7056-30.39232-174.04928L993.28 337.92z" fill="#EFC75E" p-id="2764"></path><path d="M235.52 389.12a10.24 10.24 0 0 0-10.24 10.24v174.08a10.24 10.24 0 0 0 10.24 10.24h778.24a9.91232 9.91232 0 0 0 5.35552-1.73056c3.13344-22.87616 4.88448-46.21312 4.88448-69.94944 0-42.37312-5.24288-83.5072-14.9504-122.88H235.52z" fill="#FFFFFF" p-id="2765"></path><path d="M1013.76 419.84H215.04a10.24 10.24 0 0 0-10.24 10.24v184.32a10.24 10.24 0 0 0 10.24 10.24h796.37504A513.51552 513.51552 0 0 0 1024 512c0-31.35488-2.9696-61.99296-8.36608-91.78112L1013.76 419.84z" fill="#EDEDED" p-id="2766"></path><path d="M194.56 450.56a30.72 30.72 0 0 0-30.72 30.72v405.98528C255.20128 972.0832 377.50784 1024 512 1024c282.76736 0 512-229.23264 512-512 0-20.80768-1.39264-41.27744-3.79904-61.44H194.56z" fill="#EFC75E" p-id="2767"></path><path d="M276.48 552.96h368.64a10.24 10.24 0 0 1 10.24 10.24v194.56a10.24 10.24 0 0 1-10.24 10.24H276.48a10.24 10.24 0 0 1-10.24-10.24V563.2a10.24 10.24 0 0 1 10.24-10.24z" fill="#EDEDED" p-id="2768"></path><path d="M307.2 604.16v10.24h307.2v-10.24H307.2z m0 61.44h307.2v-10.24H307.2v10.24z m0 51.2h307.2v-10.24H307.2v10.24z" fill="#D4D4D4" p-id="2769"></path></svg>